<?xml version="1.0" encoding="UTF-8"?>
<svg id="Layer_1" data-name="Layer 1" xmlns="http://www.w3.org/2000/svg" viewBox="0 0 708.88 646.96">
  <g>
    <path d="M574.96,162.18c.93,1.54,2.18,3.41,3.73,5.55,4.17,5.77,8.92,9.23,14.09,10.28,.98,.2,1.98,.3,3,.3,4.39,0,9.14-1.83,14.17-5.48,4.39-3.17,7.53-6.71,9.33-10.52,1.69-3.58,2.05-7.44,1.08-11.48,2.8,1.34,5.85,1.81,9.08,1.39,3.51-.45,7.12-2,10.72-4.61,4.86-3.51,7.67-7.51,8.38-11.88,.7-4.37-1.06-9.52-5.23-15.29-1.15-1.6-2.39-3.04-3.68-4.3l-4.04-3.93-62.86,45.46-.28,.2,.17,.3c.6,1.07,1.34,2.35,2.34,4.01Zm39.95-6.29c-.55,3.89-3.51,7.8-8.8,11.63-4.51,3.26-8.66,4.76-12.33,4.47-3.65-.3-7.21-2.82-10.59-7.5-.68-.94-1.23-1.77-1.69-2.53-.41-.67-.8-1.32-1.17-1.95l27.98-20.24,1.44,1.99c3.97,5.48,5.7,10.24,5.15,14.13Zm-2.17-19.46l22.85-16.52c.82,.82,1.76,1.95,2.8,3.4,1.74,2.41,2.9,4.59,3.44,6.47,.54,1.86,.62,3.58,.25,5.1-.37,1.52-1.15,2.97-2.31,4.3-1.17,1.35-2.69,2.7-4.5,4.01-3.53,2.55-7.04,3.69-10.44,3.38-3.37-.31-6.64-2.62-9.72-6.87l-2.38-3.29Z"/>
    <polygon points="596.03 192.81 595.7 193 598.7 198.45 648.86 170.8 649.2 170.62 646.19 165.16 596.03 192.81"/>
    <path d="M658.12,165.97c.27,.06,.54,.09,.83,.09,.88,0,1.87-.3,2.93-.88,1.2-.66,2.04-1.57,2.49-2.71,.46-1.16,.35-2.37-.33-3.6-.68-1.23-1.64-1.97-2.87-2.2-1.2-.23-2.41,0-3.62,.66-1.41,.78-2.31,1.7-2.67,2.76-.37,1.07-.2,2.26,.51,3.55,.71,1.29,1.63,2.07,2.73,2.33Z"/>
    <polygon points="604.39 209.72 606.96 215.4 680.3 182.25 680.65 182.09 678.08 176.41 604.74 209.56 604.39 209.72"/>
    <polygon points="612.11 227.91 614.22 233.77 689.95 206.54 690.31 206.41 688.2 200.55 612.47 227.78 612.11 227.91"/>
    <path d="M624.35,270.73l.4-.13c1.84-.59,3.93-1.19,6.22-1.77,2.28-.58,4.48-1.12,6.62-1.63l26.79-6.36c5.81-1.38,9.81-3.38,11.87-5.94,2.08-2.59,2.56-6.35,1.42-11.17-.46-1.94-1.16-3.81-2.09-5.57-.93-1.74-1.76-3.17-2.48-4.24l-.24-.36-4.21,3.6,.23,.29c.76,.96,1.41,2.07,1.92,3.3,.53,1.25,.95,2.55,1.26,3.85,.42,1.77,.46,3.27,.12,4.46-.34,1.16-1.1,2.17-2.25,2.99-1.2,.85-2.92,1.62-5.12,2.3-2.18,.67-4.86,1.38-7.97,2.13-1.65-6.35-4.56-11.12-8.66-14.18-4.2-3.13-9.66-3.93-16.24-2.36-5.31,1.26-8.92,3.15-10.73,5.63-1.83,2.49-2.32,5.6-1.45,9.24,.52,2.21,1.68,4.05,3.42,5.45,1.48,1.19,3.13,2.2,4.91,2.99l-4.98,2.24,1.25,5.25Zm.64-18.98c.08-.68,.41-1.37,.96-2.04,.57-.68,1.45-1.34,2.61-1.96,1.17-.62,2.8-1.18,4.83-1.66,1.91-.45,3.65-.68,5.2-.68,.73,0,1.42,.05,2.07,.15,1.99,.32,3.7,1.03,5.08,2.12,1.39,1.09,2.53,2.54,3.4,4.3,.83,1.68,1.52,3.59,2.04,5.7l-15.5,3.68c-2.62-.29-4.94-1.07-6.89-2.34-1.93-1.25-3.16-2.95-3.66-5.05-.18-.77-.23-1.52-.14-2.23Z"/>
    <path d="M669.63,283.74c.95,.18,1.98,.55,3.06,1.09,1.1,.55,2.14,1.24,3.07,2.06,.94,.82,1.76,1.78,2.43,2.84,.66,1.05,1.07,2.24,1.21,3.53l.24,2.15h5.98s.06-2,.06-2c0-1.42-.29-2.74-.86-3.91-.56-1.15-1.29-2.22-2.18-3.18-.89-.95-1.87-1.79-2.92-2.49-.77-.52-1.49-.96-2.13-1.34l6.31-.91-.64-5.73-56.91,6.42-.38,.04,.69,6.19,42.96-4.76Z"/>
    <path d="M681.18,331.01c.36-.24,.73-.5,1.11-.76,.76-.54,1.44-1.21,2-1.98,.57-.78,1.04-1.73,1.42-2.81,.37-1.08,.58-2.42,.61-3.97,.1-5.13-2.24-9.19-6.95-12.08-4.65-2.85-12.21-4.39-22.46-4.6-10.33-.21-17.87,.96-22.4,3.48-4.6,2.55-6.98,6.41-7.08,11.46-.05,2.67,.74,4.93,2.36,6.74,1.43,1.6,2.92,3.01,4.43,4.2l-6.22,.2-.11,5.3,80.85,1.61,.12-6.23-27.7-.55Zm-48.33-10.7c.04-1.86,.64-3.41,1.81-4.59,1.18-1.21,2.87-2.18,5.02-2.87,2.18-.71,4.8-1.18,7.79-1.42,3.02-.24,6.34-.33,9.87-.26,3.24,.06,6.34,.28,9.22,.64,2.87,.36,5.41,.96,7.55,1.78,2.12,.82,3.79,1.89,4.97,3.19,1.15,1.27,1.71,2.93,1.68,4.92-.19,2.09-1.28,4.03-3.24,5.77-1.98,1.76-4.28,2.92-6.85,3.46l-28.22-.56c-3.79-1.4-6.37-3.07-7.68-4.94-1.31-1.88-1.96-3.6-1.93-5.1Z"/>
    <polygon points="651.73 374.29 647.2 396.24 651.81 397.39 656.34 375.45 651.73 374.29"/>
    <polygon points="671.49 453.79 605.51 422.29 605.16 422.13 602.47 427.75 668.8 459.42 662.82 471.94 667.72 474.28 682.32 443.71 677.42 441.37 671.49 453.79"/>
    <path d="M620.72,454.53c-3.84-2.45-7.46-4.42-10.77-5.87-3.33-1.45-6.44-2.28-9.23-2.47-2.83-.2-5.41,.32-7.7,1.53-2.29,1.21-4.38,3.26-6.2,6.12-1.06,1.65-2.03,3.36-2.91,5.08-.87,1.72-1.57,3.43-2.09,5.09l-.11,.33,4.87,2.01,.13-.38c.43-1.23,1.02-2.58,1.76-4.01,.74-1.43,1.65-3,2.7-4.64,.91-1.42,2.05-2.58,3.39-3.46,1.32-.86,3.01-1.28,5.09-1.27,2.09,.02,4.63,.59,7.54,1.71,2.85,1.09,6.32,2.92,10.3,5.45l-12.22,21.22,4.14,2.65c2.44,1.56,4.97,2.97,7.51,4.19,2.57,1.23,5.09,2.04,7.51,2.4,.75,.11,1.49,.17,2.22,.17,1.63,0,3.19-.28,4.67-.83,2.15-.82,4.05-2.49,5.63-4.97,3.22-5.03,3.3-10.1,.25-15.04-3-4.86-8.55-9.9-16.48-14.97Zm11.87,26.55c-.53,.82-1.35,1.48-2.45,1.96-1.12,.48-2.5,.66-4.1,.54-1.63-.12-3.55-.6-5.73-1.41-2.09-.79-4.47-2.01-7.07-3.65l8.64-15.53c1.33,1.04,2.77,2.19,4.28,3.43,1.74,1.42,3.29,2.97,4.59,4.6,1.29,1.61,2.2,3.3,2.71,5.03,.49,1.66,.2,3.35-.88,5.03Z"/>
    <path d="M611.97,507.14c-.34,1.17-.86,2.35-1.56,3.49-.71,1.16-1.51,2.26-2.39,3.27-1.19,1.38-2.39,2.28-3.55,2.7-1.15,.41-2.41,.38-3.75-.08-1.39-.47-3.02-1.42-4.86-2.81-1.8-1.37-3.95-3.12-6.38-5.23,4.19-5.05,6.36-10.2,6.45-15.3,.09-5.24-2.46-10.14-7.57-14.56-4.12-3.57-7.76-5.4-10.83-5.43-3.05,0-5.9,1.39-8.35,4.22-1.49,1.72-2.31,3.73-2.43,5.96-.1,1.9,.05,3.82,.44,5.74l-4.73-2.73-3.54,4.08,.33,.25c1.57,1.16,3.27,2.51,5.07,4.02,1.8,1.51,3.53,2.98,5.19,4.42l20.81,18.03c4.51,3.91,8.47,5.98,11.76,6.17,.15,0,.3,.01,.45,.01,3.17,0,6.35-1.81,9.45-5.39,1.3-1.5,2.41-3.17,3.29-4.95,.89-1.8,1.54-3.27,1.99-4.49l.15-.41-5.38-1.31-.1,.36Zm-37.24-27.26c.61-.34,1.33-.46,2.22-.41,.89,.06,1.94,.39,3.11,.98,1.19,.59,2.6,1.59,4.17,2.95,2.19,1.89,3.76,3.78,4.67,5.59,.91,1.8,1.33,3.61,1.24,5.36-.08,1.77-.59,3.54-1.5,5.27-.88,1.65-2.03,3.33-3.43,4.98l-12.04-10.43c-1.3-2.3-2.01-4.64-2.13-6.95-.11-2.3,.55-4.29,1.96-5.92,.51-.59,1.09-1.07,1.73-1.42Z"/>
    <path d="M553.01,497.96l-5.08,3.98,28.64,36.56c-.11,2.46-.63,4.73-1.54,6.74-.93,2.03-2.13,3.63-3.56,4.76-1.46,1.14-3.16,1.58-5.06,1.3-1.91-.29-3.79-1.59-5.59-3.89l-26.73-34.12-.24-.3-4.9,3.84,28.7,36.64c-.15,2.41-.69,4.64-1.61,6.65-.93,2.03-2.1,3.61-3.47,4.69-1.48,1.16-3.14,1.58-5.06,1.3-1.91-.28-3.79-1.59-5.59-3.89l-26.73-34.12-.24-.3-4.9,3.84,27.39,34.97c1.38,1.76,2.89,3.14,4.48,4.11,1.6,.97,3.21,1.59,4.79,1.83,.58,.09,1.15,.14,1.73,.14,1,0,1.98-.14,2.93-.41,1.5-.43,2.85-1.11,4.01-2.03,1.94-1.52,3.6-3.42,4.94-5.63,1.25-2.08,2-4.38,2.23-6.85,1.77,.72,3.68,.88,5.69,.49,2.18-.43,4.22-1.37,6.05-2.8,1.94-1.52,3.58-3.37,4.88-5.52,1.17-1.93,1.84-3.9,2.01-5.87l3.38,2.47,4.03-3.15-35.32-45.09-.24-.3Z"/>
    <polygon points="475.25 548.03 489.53 583.25 470.42 590.93 472.58 596.29 491.69 588.61 502.73 616.08 482.25 624.31 484.32 629.46 510.33 619.01 510.68 618.86 481.25 545.62 475.25 548.03"/>
    <path d="M446.77,585.94l-17.5,3.94-12.09-24.69-6.1,1.37,35.24,72.68,.13,.27,5.92-1.33,.61-81.04-6.1,1.37-.12,27.44Zm-15.09,9.2l15.17-3.41,.63,37.32-.28,.06-15.52-33.97Z"/>
    <path d="M404.53,567.09l-.34-.02c-1.22-.08-2.73-.16-4.64-.23-1.8-.06-4.05-.02-6.69,.11-7.11,.36-12.59,2.45-16.3,6.22-3.71,3.78-5.4,9.57-5.01,17.22,.27,5.42,1.53,9.98,3.75,13.56,2.08,3.37,5.12,5.77,9.04,7.15-2.65,1.61-4.7,3.92-6.11,6.85-1.53,3.2-2.2,7.07-1.98,11.51,.3,5.98,2.12,10.53,5.4,13.5,2.94,2.65,7.47,4,13.48,4,.71,0,1.44-.02,2.2-.06,1.98-.1,3.87-.35,5.61-.74l5.5-1.24-3.89-77.48-.02-.34Zm-9.32,5.34c.34,0,.66,0,.98,.02,.79,.03,1.54,.05,2.27,.08l1.73,34.49-2.46,.12c-6.76,.34-11.69-.8-14.65-3.37-2.96-2.58-4.63-7.19-4.96-13.71-.28-5.56,.72-9.86,2.97-12.77,2.24-2.89,6.29-4.51,12.05-4.8,.75-.04,1.44-.06,2.07-.06Zm-9.73,44.74c2.1-2.66,5.81-4.15,11.05-4.41l4.05-.2,1.41,28.16c-1.13,.24-2.6,.41-4.37,.5-2.97,.15-5.43-.06-7.31-.64-1.85-.56-3.34-1.43-4.41-2.57-1.08-1.14-1.87-2.58-2.36-4.28-.5-1.73-.8-3.74-.92-5.96-.22-4.35,.74-7.92,2.85-10.6Z"/>
  </g>
  <g>
    <g>
      <path d="M610.29,336.46c-11.59,122.17-114.47,217.74-239.67,217.74-85.07,0-159.83-44.11-202.65-110.7,49.06,35.16,109.84,55.97,175.63,55.97,117.79,0,219.45-66.65,266.68-163.01Z" fill="#666"/>
      <path d="M557.86,162.07c-6.72-8.3-13.98-16.16-21.73-23.48-43.14-40.87-101.4-65.93-165.51-65.93-5.18,0-10.32,.17-15.41,.49-1.25,.08-2.49,.15-3.74,.26-51.48,4.04-98.39,24.28-135.66,55.61-.89,.74-1.78,1.49-2.66,2.26-51.03,44.14-83.32,109.36-83.32,182.14,0,37.1,8.39,72.25,23.39,103.63,28.06,14.04,58.9,23.59,91.51,27.63,11.64,1.45,23.51,2.18,35.55,2.18,153.52,0,277.98-120.94,277.98-270.14,0-4.92-.14-9.81-.42-14.65Zm-239.78,51.68c-18,12.98-39.88,13.38-48.88,.91-8.98-12.48-1.68-33.1,16.33-46.08,18-12.98,39.88-13.38,48.86-.91,8.99,12.48,1.69,33.1-16.31,46.08Z" fill="#fff"/>
      <path d="M611.38,313.42c0,7.76-.37,15.45-1.09,23.03-47.23,96.36-148.89,163.01-266.68,163.01-65.79,0-126.57-20.8-175.63-55.97,0,0-.02,0-.02-.02-.42-.66-.83-1.31-1.25-1.97h-.02c-4.94-7.86-9.44-16.02-13.47-24.46,28.06,14.04,58.9,23.59,91.51,27.63,11.64,1.45,23.51,2.18,35.55,2.18,153.52,0,277.98-120.94,277.98-270.14,0-4.92-.14-9.81-.42-14.65,33.47,41.34,53.52,94.02,53.52,151.35Z" fill="#989898"/>
      <path d="M351.48,73.42c-51.48,4.04-98.39,24.28-135.66,55.61-.89,.74-1.78,1.49-2.66,2.26-51.03,44.14-83.32,109.36-83.32,182.14,0,37.1,8.39,72.25,23.39,103.63,4.03,8.44,8.53,16.61,13.47,24.46-.72-.17-1.46-.34-2.18-.52C71.45,418.62,2.31,334.84,2.31,234.92c0-9.32,.6-18.51,1.78-27.51,1.14-8.92,2.84-17.65,5.07-26.18,13.22,2.24,27.23,2.51,41.5,.75,25.25-3.09,51.31-12.53,75.31-28.54,16.77-11.19,30.97-24.54,42.3-39.1,21.74-27.98,32.87-60.47,31.27-90.85,4.86-.34,9.76-.51,14.7-.51,22.36,0,43.9,3.46,64.13,9.89,27.15,8.59,51.92,22.52,73.11,40.54Z" fill="#fde53e"/>
      <path d="M318.08,213.75c-18,12.98-39.88,13.38-48.88,.91-8.98-12.48-1.68-33.1,16.33-46.08,18-12.98,39.88-13.38,48.86-.91,8.99,12.48,1.69,33.1-16.31,46.08Z" fill="#d33434"/>
      <path d="M536.13,138.59c-43.14-40.87-101.4-65.93-165.51-65.93-5.18,0-10.32,.17-15.41,.49-1.25,.08-2.49,.15-3.74,.26-21.19-18.02-45.96-31.95-73.11-40.54,26.94-19.25,59.93-30.57,95.56-30.57,6.73,0,13.36,.4,19.88,1.2,72.19,8.67,130,64.08,142.33,135.09Z" fill="#3cb2cc"/>
      <path d="M168.27,114.35c-11.33,14.56-25.52,27.91-42.3,39.1-24,16.01-50.06,25.45-75.31,28.54-14.27,1.75-28.28,1.49-41.5-.75,13.38-51.21,45.4-94.87,88.41-123.26,7.36-4.87,15.04-9.29,23-13.21,24.09-11.89,50.77-19.34,78.97-21.26,1.6,30.38-9.53,62.87-31.27,90.85Z" fill="#fcecb0"/>
      <path d="M393.81,3.51c-5.77,24.48-18.99,48.77-38.59,69.65-1.25,.08-2.49,.15-3.74,.26-21.19-18.02-45.96-31.95-73.11-40.54,26.94-19.25,59.93-30.57,95.56-30.57,6.73,0,13.36,.4,19.88,1.2Z" fill="#addfe8"/>
    </g>
    <g>
      <path d="M559.65,160.62c-6.65-8.21-13.85-16-21.39-23.17-6.26-35.1-23.27-66.71-49.25-91.44-26.26-25-59.09-40.48-94.92-44.79-6.58-.81-13.36-1.22-20.16-1.22-34.63,0-67.78,10.5-95.96,30.35-20.55-6.4-41.98-9.67-63.73-9.67-4.97,0-9.97,.17-14.86,.51-27.91,1.9-54.77,9.14-79.83,21.5-7.97,3.92-15.8,8.42-23.25,13.35C52.02,85.28,20.28,129.53,6.93,180.64c-2.27,8.7-4,17.61-5.13,26.47-1.2,9.09-1.8,18.44-1.8,27.81,0,49.09,16.15,95.27,46.71,133.56,29.66,37.16,71.31,63.71,117.24,74.75,.43,.11,.87,.21,1.31,.32l.4,.61v1.65h1.06c45.09,69.34,121.22,110.7,203.9,110.7,60.87,0,119.11-22.61,163.99-63.66,44.59-40.79,72.28-96.25,77.97-156.17,.73-7.67,1.1-15.5,1.1-23.25,0-55.5-19.19-109.76-54.03-152.81ZM373.93,4.61c6.61,0,13.2,.4,19.6,1.18,34.85,4.19,66.76,19.25,92.3,43.55,23.75,22.6,39.8,51.11,46.7,82.79-.66-.59-1.32-1.16-1.99-1.74-.61-.53-1.21-1.07-1.83-1.6-.86-.74-1.73-1.46-2.59-2.18-.59-.49-1.18-.99-1.78-1.48-.92-.75-1.85-1.49-2.78-2.23-.55-.44-1.1-.89-1.66-1.32-1.04-.81-2.09-1.6-3.13-2.39-.46-.35-.92-.7-1.38-1.05-1.34-.99-2.69-1.97-4.04-2.94-.18-.13-.36-.26-.54-.39-1.56-1.1-3.13-2.19-4.71-3.25-.1-.07-.2-.13-.3-.2-1.46-.98-2.94-1.95-4.42-2.9-.43-.27-.87-.54-1.3-.81-1.16-.73-2.32-1.46-3.49-2.17-.55-.33-1.1-.65-1.65-.98-1.06-.63-2.13-1.27-3.2-1.89-.61-.35-1.23-.69-1.84-1.04-1.02-.58-2.04-1.15-3.07-1.72-.65-.35-1.3-.7-1.95-1.04-1-.53-2-1.07-3.01-1.59-.68-.35-1.36-.69-2.05-1.03-.99-.5-1.98-1-2.97-1.48-.71-.34-1.42-.68-2.12-1.01-.98-.47-1.97-.93-2.95-1.38-.72-.33-1.45-.65-2.18-.98-.98-.44-1.96-.87-2.95-1.3-.74-.32-1.49-.63-2.23-.94-.98-.41-1.96-.82-2.95-1.22-.76-.3-1.51-.6-2.27-.9-.98-.38-1.97-.77-2.96-1.14-.77-.29-1.54-.57-2.31-.85-.99-.36-1.97-.71-2.96-1.06-.78-.27-1.56-.54-2.35-.8-.99-.34-1.99-.66-2.98-.99-.79-.26-1.58-.51-2.37-.75-.99-.31-1.99-.61-2.99-.91-.8-.24-1.6-.47-2.41-.71-1-.29-2-.56-3-.84-.81-.22-1.62-.44-2.43-.65-1-.26-2.01-.52-3.01-.77-.82-.2-1.63-.4-2.45-.6-1.01-.24-2.02-.47-3.04-.7-.82-.18-1.64-.37-2.47-.54-1.01-.22-2.03-.42-3.05-.62-.83-.17-1.66-.33-2.49-.49-1.02-.19-2.05-.37-3.07-.55-.83-.15-1.66-.29-2.5-.43-1.03-.17-2.06-.32-3.1-.48-.83-.13-1.67-.26-2.5-.37-1.04-.15-2.09-.28-3.14-.41-.83-.11-1.66-.22-2.49-.31-1.07-.12-2.14-.23-3.21-.34-.82-.08-1.63-.18-2.45-.25-1.1-.1-2.2-.19-3.31-.27-.79-.06-1.58-.13-2.37-.19-1.16-.08-2.31-.14-3.47-.21-.74-.04-1.49-.09-2.23-.13-1.28-.06-2.56-.1-3.84-.14-.62-.02-1.25-.05-1.87-.06-1.91-.04-3.82-.07-5.74-.07-5.13,0-10.36,.17-15.55,.5-.94,.06-1.89,.12-2.83,.19-.66-.56-1.34-1.1-2.01-1.65-.55-.45-1.09-.9-1.64-1.35-.92-.74-1.86-1.47-2.79-2.2-.43-.33-.85-.67-1.28-1-1.37-1.05-2.75-2.08-4.13-3.1-.24-.17-.48-.34-.71-.51-1.16-.84-2.32-1.67-3.49-2.48-.49-.34-1-.67-1.49-1.01-.92-.63-1.84-1.26-2.77-1.87-.57-.38-1.15-.74-1.73-1.11-.87-.56-1.73-1.12-2.6-1.67-.61-.38-1.23-.75-1.84-1.13-.85-.52-1.7-1.04-2.55-1.54-.64-.38-1.28-.74-1.92-1.11-.84-.49-1.69-.97-2.54-1.45-.65-.37-1.31-.73-1.97-1.09-.84-.46-1.69-.92-2.54-1.37-.67-.35-1.34-.7-2.01-1.05-.85-.44-1.7-.87-2.56-1.29-.68-.34-1.37-.68-2.05-1.01-.86-.42-1.72-.82-2.58-1.23-.69-.32-1.38-.64-2.07-.96-.87-.4-1.75-.78-2.62-1.17-.7-.3-1.39-.61-2.09-.91-.89-.38-1.78-.74-2.67-1.11-.69-.28-1.39-.57-2.09-.85-.92-.36-1.84-.71-2.76-1.07-.68-.26-1.37-.53-2.05-.78-.96-.36-1.93-.7-2.9-1.04-.65-.23-1.3-.47-1.96-.69-.11-.04-.22-.08-.33-.12,26.76-18.02,57.93-27.51,90.44-27.51ZM50.31,365.6C20.42,328.14,4.61,282.95,4.61,234.92c0-9.17,.59-18.32,1.77-27.21,1.11-8.67,2.79-17.39,5.02-25.89,13.06-50.01,44.12-93.31,87.45-121.92,7.3-4.83,14.95-9.22,22.75-13.06,24.52-12.09,50.79-19.17,78.11-21.03,4.78-.33,9.67-.5,14.54-.5,21.66,0,43,3.29,63.43,9.78,1.61,.51,3.21,1.04,4.81,1.59,.52,.18,1.03,.37,1.54,.55,1.07,.38,2.14,.75,3.21,1.15,.62,.23,1.24,.47,1.86,.71,.95,.36,1.9,.72,2.84,1.1,.66,.26,1.31,.53,1.96,.8,.9,.37,1.8,.74,2.69,1.12,.67,.28,1.33,.58,1.99,.87,.87,.38,1.74,.77,2.61,1.16,.67,.31,1.34,.62,2.01,.93,.85,.4,1.69,.8,2.54,1.21,.67,.33,1.34,.66,2.01,.99,.83,.41,1.66,.83,2.49,1.26,.67,.34,1.33,.69,1.99,1.04,.82,.43,1.64,.88,2.45,1.32,.66,.36,1.31,.72,1.96,1.08,.82,.46,1.63,.92,2.44,1.39,.64,.37,1.28,.74,1.92,1.12,.82,.48,1.62,.98,2.43,1.47,.62,.38,1.24,.76,1.86,1.14,.82,.52,1.64,1.04,2.46,1.57,.59,.38,1.19,.76,1.77,1.15,.85,.56,1.69,1.14,2.54,1.71,.54,.37,1.09,.74,1.63,1.11,.93,.65,1.85,1.31,2.76,1.97,.45,.32,.9,.64,1.35,.96,1.31,.96,2.62,1.94,3.91,2.93,.04,.03,.09,.07,.13,.1,1.3,1,2.58,2.02,3.86,3.05-.17,.02-.34,.04-.51,.06-2.8,.29-5.6,.62-8.38,1.01-.18,.03-.37,.05-.55,.08-2.86,.4-5.7,.85-8.54,1.35-.07,.01-.15,.03-.22,.04-2.86,.51-5.7,1.07-8.54,1.68-.09,.02-.17,.03-.26,.05-2.78,.6-5.55,1.26-8.31,1.96-.2,.05-.4,.1-.6,.15-2.67,.69-5.32,1.42-7.96,2.2-.28,.08-.55,.16-.83,.24-2.58,.77-5.14,1.58-7.68,2.43-.33,.11-.66,.22-.99,.33-2.5,.85-4.99,1.74-7.46,2.67-.36,.14-.72,.27-1.08,.41-2.44,.93-4.87,1.91-7.28,2.92-.38,.16-.75,.32-1.13,.48-2.39,1.02-4.77,2.08-7.13,3.18-.38,.18-.75,.35-1.13,.53-2.35,1.11-4.69,2.26-7.01,3.44-.37,.19-.73,.38-1.1,.57-2.32,1.2-4.63,2.45-6.92,3.73-.34,.19-.68,.38-1.02,.58-2.3,1.31-4.59,2.65-6.85,4.03-.3,.19-.61,.38-.91,.56-2.29,1.41-4.56,2.86-6.81,4.35-.26,.17-.51,.35-.77,.52-2.29,1.53-4.55,3.1-6.79,4.71-.19,.14-.38,.28-.58,.42-2.3,1.66-4.57,3.36-6.82,5.11-.11,.08-.22,.17-.32,.26-2.32,1.82-4.62,3.67-6.89,5.58-.91,.75-1.82,1.52-2.7,2.29-53.46,46.24-84.12,113.26-84.12,183.88,0,36.63,7.94,71.83,23.61,104.62,.92,1.93,1.88,3.84,2.85,5.76,.3,.59,.61,1.18,.92,1.77,.7,1.34,1.41,2.68,2.13,4.01,.36,.65,.72,1.31,1.08,1.96,.74,1.33,1.5,2.65,2.26,3.97,.33,.57,.65,1.14,.99,1.7,.14,.24,.28,.49,.42,.73-43.68-11.26-83.17-36.86-111.49-72.34Zm557.68-29.36c-5.58,58.78-32.74,113.19-76.49,153.2-44.03,40.27-101.17,62.45-160.88,62.45-81.53,0-156.56-40.99-200.71-109.64l-.34-.53-1.14-1.8c-.69-1.11-1.37-2.24-2.04-3.36-.51-.84-1.03-1.68-1.52-2.53-.7-1.19-1.37-2.39-2.04-3.58-.44-.78-.89-1.55-1.32-2.33-.74-1.35-1.45-2.71-2.16-4.07-.34-.65-.69-1.28-1.02-1.93-1.03-2.01-2.03-4.03-3-6.06-15.37-32.17-23.16-66.7-23.16-102.64,0-69.28,30.08-135.03,82.53-180.4,.86-.75,1.74-1.49,2.62-2.23,4.78-4.02,9.68-7.83,14.71-11.43,3.2-2.29,6.45-4.49,9.75-6.62,1.39-.9,2.8-1.78,4.21-2.65,.62-.38,1.24-.77,1.87-1.15,31.42-18.95,66.72-30.31,103.84-33.23,1.23-.11,2.45-.18,3.68-.26,5.09-.32,10.23-.49,15.26-.49,9.57,0,19.07,.57,28.45,1.68,3.75,.45,7.49,.98,11.2,1.6s7.41,1.33,11.07,2.12c2.3,.5,4.59,1.04,6.87,1.61,39.56,9.8,76.13,29.67,106.34,58.28,7.6,7.18,14.84,15,21.52,23.25,34.18,42.22,53.01,95.46,53.01,149.9,0,7.61-.36,15.28-1.08,22.82Z"/>
      <path d="M318.73,156.56c-1.74-.23-3.55-.32-5.43-.29-9.7,.18-20.04,3.88-29.12,10.43-19,13.69-26.56,35.81-16.85,49.3,4.81,6.67,12.97,10,22.28,10s20.22-3.47,29.82-10.39c19-13.69,26.55-35.81,16.84-49.3-3.9-5.42-10-8.78-17.54-9.76Zm-2,55.31c-16.94,12.21-37.42,12.85-45.66,1.43-1.28-1.79-2.19-3.76-2.75-5.87-.45-1.69-.67-3.46-.67-5.29-.03-10.52,7.06-22.93,19.23-31.7,7.29-5.25,15.41-8.51,23.2-9.35,1.11-.12,2.22-.19,3.31-.21,.72-.01,1.42,.03,2.11,.06,.39,.02,.8,.02,1.18,.05,.66,.05,1.29,.15,1.92,.24,.31,.05,.63,.08,.94,.13,.64,.12,1.26,.28,1.87,.43,.27,.07,.56,.13,.83,.21,.59,.18,1.16,.39,1.72,.61,.26,.1,.54,.18,.79,.29,.53,.23,1.03,.5,1.53,.77,.25,.13,.52,.25,.77,.4,.47,.28,.91,.6,1.35,.91,.24,.17,.49,.32,.72,.5,.44,.34,.84,.73,1.24,1.11,.19,.18,.41,.34,.59,.54,.57,.59,1.09,1.22,1.57,1.88,8.23,11.43,1.15,30.65-15.79,42.86Z"/>
    </g>
  </g>
</svg>